<svg width="218" height="216" viewBox="0 0 218 216" fill="none" xmlns="http://www.w3.org/2000/svg">
<g opacity="0.7">
<rect x="166.445" y="89.0062" width="18.1309" height="28.0205" fill="url(#paint0_linear_171_3)"/>
<rect x="168.094" y="90.6545" width="14.4676" height="1.04743" fill="#F6FCDF"/>
<rect x="168.094" y="93.7968" width="14.4676" height="1.04743" fill="#F6FCDF"/>
<rect x="168.094" y="96.9391" width="14.4676" height="1.04743" fill="#F6FCDF"/>
<rect x="168.094" y="100.081" width="14.4676" height="1.04743" fill="#F6FCDF"/>
<rect x="168.094" y="103.224" width="14.4676" height="1.04743" fill="#F6FCDF"/>
<rect x="168.094" y="106.366" width="14.4676" height="1.04743" fill="#F6FCDF"/>
<rect x="168.094" y="109.508" width="14.4676" height="1.04743" fill="#F6FCDF"/>
<rect x="168.094" y="112.651" width="14.4676" height="1.04743" fill="#F6FCDF"/>
<rect x="168.094" y="87.358" width="3.33867" height="2.22578" fill="url(#paint1_linear_171_3)"/>
<rect x="179.631" y="87.358" width="3.33867" height="2.22578" fill="url(#paint2_linear_171_3)"/>
<line x1="174.853" y1="82.4132" x2="174.853" y2="90.2034" stroke="url(#paint3_linear_171_3)" stroke-width="0.333867"/>
<path d="M139.511 75.8202L136.889 85.5225V101.78H136.102V100.994H134.267V101.78H133.48V110.434H147.902V108.074L145.28 107.287V101.78H144.756V100.994H143.707V101.78H142.396V85.5225L139.511 75.8202Z" fill="url(#paint4_linear_171_3)"/>
<line x1="139.453" y1="72.5237" x2="139.453" y2="76.9752" stroke="url(#paint5_linear_171_3)" stroke-width="0.333867"/>
<rect x="131.861" y="107.46" width="41.177" height="10.016" fill="url(#paint6_linear_171_3)"/>
<rect x="139.652" y="98.5573" width="25.5965" height="8.90313" fill="url(#paint7_linear_171_3)"/>
<rect x="141.877" y="100.783" width="2.22578" height="2.22578" fill="#F6FCDF"/>
<rect x="145.216" y="100.783" width="2.22578" height="2.22578" fill="#F6FCDF"/>
<rect x="141.877" y="104.122" width="2.22578" height="2.22578" fill="#F6FCDF"/>
<rect x="145.216" y="104.122" width="2.22578" height="2.22578" fill="#F6FCDF"/>
<rect x="134.087" y="109.686" width="2.22578" height="2.22578" fill="#F6FCDF"/>
<rect x="137.426" y="109.686" width="2.22578" height="2.22578" fill="#F6FCDF"/>
<rect x="134.087" y="113.025" width="2.22578" height="2.22578" fill="#F6FCDF"/>
<rect x="137.426" y="113.025" width="2.22578" height="2.22578" fill="#F6FCDF"/>
<rect x="141.877" y="109.686" width="2.22578" height="2.22578" fill="#F6FCDF"/>
<rect x="145.216" y="109.686" width="2.22578" height="2.22578" fill="#F6FCDF"/>
<rect x="141.877" y="113.025" width="2.22578" height="2.22578" fill="#F6FCDF"/>
<rect x="145.216" y="113.025" width="2.22578" height="2.22578" fill="#F6FCDF"/>
<rect x="149.667" y="109.686" width="2.22578" height="2.22578" fill="#F6FCDF"/>
<rect x="153.006" y="109.686" width="2.22578" height="2.22578" fill="#F6FCDF"/>
<rect x="149.667" y="113.025" width="2.22578" height="2.22578" fill="#F6FCDF"/>
<rect x="153.006" y="113.025" width="2.22578" height="2.22578" fill="#F6FCDF"/>
<rect x="157.458" y="109.686" width="2.22578" height="2.22578" fill="#F6FCDF"/>
<rect x="160.796" y="109.686" width="2.22578" height="2.22578" fill="#F6FCDF"/>
<rect x="157.458" y="113.025" width="2.22578" height="2.22578" fill="#F6FCDF"/>
<rect x="160.796" y="113.025" width="2.22578" height="2.22578" fill="#F6FCDF"/>
<rect x="165.248" y="109.686" width="2.22578" height="2.22578" fill="#F6FCDF"/>
<rect x="168.587" y="109.686" width="2.22578" height="2.22578" fill="#F6FCDF"/>
<rect x="165.248" y="113.025" width="2.22578" height="2.22578" fill="#F6FCDF"/>
<rect x="168.587" y="113.025" width="2.22578" height="2.22578" fill="#F6FCDF"/>
<rect x="149.667" y="100.783" width="2.22578" height="2.22578" fill="#F6FCDF"/>
<rect x="153.006" y="100.783" width="2.22578" height="2.22578" fill="#F6FCDF"/>
<rect x="149.667" y="104.122" width="2.22578" height="2.22578" fill="#F6FCDF"/>
<rect x="153.006" y="104.122" width="2.22578" height="2.22578" fill="#F6FCDF"/>
<rect x="157.458" y="100.783" width="2.22578" height="2.22578" fill="#F6FCDF"/>
<rect x="160.796" y="100.783" width="2.22578" height="2.22578" fill="#F6FCDF"/>
<rect x="157.458" y="104.122" width="2.22578" height="2.22578" fill="#F6FCDF"/>
<rect x="160.796" y="104.122" width="2.22578" height="2.22578" fill="#F6FCDF"/>
</g>
<g opacity="0.7">
<rect x="83.2014" y="97.0494" width="11.1289" height="20.032" fill="url(#paint8_linear_171_3)"/>
<rect x="64.2822" y="77.0173" width="18.9191" height="40.0641" fill="url(#paint9_linear_171_3)"/>
<rect x="66.5081" y="79.243" width="14.4676" height="1.04743" fill="#F6FCDF"/>
<rect x="66.5081" y="82.3853" width="14.4676" height="1.04743" fill="#F6FCDF"/>
<rect x="66.5081" y="85.5276" width="14.4676" height="1.04743" fill="#F6FCDF"/>
<rect x="66.5081" y="88.6699" width="14.4676" height="1.04743" fill="#F6FCDF"/>
<rect x="66.5081" y="91.8123" width="14.4676" height="1.04743" fill="#F6FCDF"/>
<rect x="66.5081" y="94.9546" width="14.4676" height="1.04743" fill="#F6FCDF"/>
<rect x="66.5081" y="98.0967" width="14.4676" height="1.04743" fill="#F6FCDF"/>
<rect x="66.5081" y="101.239" width="14.4676" height="1.04743" fill="#F6FCDF"/>
<rect x="66.5081" y="104.381" width="14.4676" height="1.04743" fill="#F6FCDF"/>
<rect x="66.5081" y="107.524" width="14.4676" height="1.04743" fill="#F6FCDF"/>
<rect x="66.5081" y="110.666" width="14.4676" height="1.04743" fill="#F6FCDF"/>
<rect x="66.5081" y="113.808" width="14.4676" height="1.04743" fill="#F6FCDF"/>
<rect x="66.5081" y="74.7916" width="3.33867" height="2.22578" fill="url(#paint10_linear_171_3)"/>
<rect x="77.637" y="74.7916" width="3.33867" height="2.22578" fill="url(#paint11_linear_171_3)"/>
<line x1="72.2394" y1="69.2272" x2="72.2394" y2="77.0174" stroke="url(#paint12_linear_171_3)" stroke-width="0.333867"/>
<line x1="86.707" y1="89.2592" x2="86.707" y2="97.0494" stroke="url(#paint13_linear_171_3)" stroke-width="0.333867"/>
<line x1="90.0458" y1="92.5978" x2="90.0458" y2="97.0493" stroke="url(#paint14_linear_171_3)" stroke-width="0.333867"/>
<path d="M41.3563 74.1719L43.9786 83.8742V100.132H44.7652V99.3454H46.6008V100.132H47.3875V108.785H32.9652V106.425L35.5874 105.639V100.132H36.1119V99.3454H37.1608V100.132H38.4719V83.8742L41.3563 74.1719Z" fill="url(#paint15_linear_171_3)"/>
<line y1="-0.166934" x2="4.45156" y2="-0.166934" transform="matrix(0 1 1 0 41.5811 70.8754)" stroke="url(#paint16_linear_171_3)" stroke-width="0.333867"/>
<rect x="31.3169" y="107.799" width="41.177" height="10.016" fill="url(#paint17_linear_171_3)"/>
<rect x="39.1072" y="98.896" width="25.5965" height="8.90313" fill="url(#paint18_linear_171_3)"/>
<rect x="41.3328" y="101.122" width="2.22578" height="2.22578" fill="#F6FCDF"/>
<rect x="44.6714" y="101.122" width="2.22578" height="2.22578" fill="#F6FCDF"/>
<rect x="41.3328" y="104.46" width="2.22578" height="2.22578" fill="#F6FCDF"/>
<rect x="44.6714" y="104.46" width="2.22578" height="2.22578" fill="#F6FCDF"/>
<rect x="33.5427" y="110.025" width="2.22578" height="2.22578" fill="#F6FCDF"/>
<rect x="36.8816" y="110.025" width="2.22578" height="2.22578" fill="#F6FCDF"/>
<rect x="33.5427" y="113.364" width="2.22578" height="2.22578" fill="#F6FCDF"/>
<rect x="36.8816" y="113.364" width="2.22578" height="2.22578" fill="#F6FCDF"/>
<rect x="41.3328" y="110.025" width="2.22578" height="2.22578" fill="#F6FCDF"/>
<rect x="44.6714" y="110.025" width="2.22578" height="2.22578" fill="#F6FCDF"/>
<rect x="41.3328" y="113.364" width="2.22578" height="2.22578" fill="#F6FCDF"/>
<rect x="44.6714" y="113.364" width="2.22578" height="2.22578" fill="#F6FCDF"/>
<rect x="49.123" y="110.025" width="2.22578" height="2.22578" fill="#F6FCDF"/>
<rect x="52.4619" y="110.025" width="2.22578" height="2.22578" fill="#F6FCDF"/>
<rect x="49.123" y="113.364" width="2.22578" height="2.22578" fill="#F6FCDF"/>
<rect x="52.4619" y="113.364" width="2.22578" height="2.22578" fill="#F6FCDF"/>
<rect x="56.9136" y="110.025" width="2.22578" height="2.22578" fill="#F6FCDF"/>
<rect x="60.2522" y="110.025" width="2.22578" height="2.22578" fill="#F6FCDF"/>
<rect x="56.9136" y="113.364" width="2.22578" height="2.22578" fill="#F6FCDF"/>
<rect x="60.2522" y="113.364" width="2.22578" height="2.22578" fill="#F6FCDF"/>
<rect x="64.7036" y="110.025" width="2.22578" height="2.22578" fill="#F6FCDF"/>
<rect x="68.0422" y="110.025" width="2.22578" height="2.22578" fill="#F6FCDF"/>
<rect x="64.7036" y="113.364" width="2.22578" height="2.22578" fill="#F6FCDF"/>
<rect x="68.0422" y="113.364" width="2.22578" height="2.22578" fill="#F6FCDF"/>
<rect x="49.123" y="101.122" width="2.22578" height="2.22578" fill="#F6FCDF"/>
<rect x="52.4619" y="101.122" width="2.22578" height="2.22578" fill="#F6FCDF"/>
<rect x="49.123" y="104.46" width="2.22578" height="2.22578" fill="#F6FCDF"/>
<rect x="52.4619" y="104.46" width="2.22578" height="2.22578" fill="#F6FCDF"/>
<rect x="56.9136" y="101.122" width="2.22578" height="2.22578" fill="#F6FCDF"/>
<rect x="60.2522" y="101.122" width="2.22578" height="2.22578" fill="#F6FCDF"/>
<rect x="56.9136" y="104.46" width="2.22578" height="2.22578" fill="#F6FCDF"/>
<rect x="60.2522" y="104.46" width="2.22578" height="2.22578" fill="#F6FCDF"/>
</g>
<path fill-rule="evenodd" clip-rule="evenodd" d="M116.828 84.9223C106.684 82.1902 103.465 84.0432 103.465 84.0432L94.0514 93.7475C94.0514 93.7475 92.4419 94.674 91.4664 95.7712C90.4909 96.8685 89.8079 99.4044 89.8079 99.4044L89.9533 108.963L88.7581 113.401C88.7581 113.401 88.594 115.397 91.4158 116.157C94.2375 116.917 95.732 115.28 95.732 115.28L96.9272 110.842L120.385 117.159L119.46 121.67C119.46 121.67 119.311 123.67 121.847 124.353C124.383 125.036 125.53 123.305 125.53 123.305L126.725 118.867L132.285 110.845C132.285 110.845 132.968 108.309 132.676 106.87C132.383 105.431 131.457 103.822 131.457 103.822L128.191 90.7025C128.191 90.7025 126.972 87.6543 116.828 84.9223ZM105.318 87.2622C105.318 87.2622 107.561 86.5064 115.803 88.7262C124.045 90.946 124.972 92.5555 124.972 92.5555L125.8 99.5784L101.074 92.9191L105.318 87.2622Z" fill="#31511E"/>
<path d="M120.323 125.268C119.645 123.912 101.128 129.961 101.128 129.961C101.128 129.961 99.133 130.866 99.166 131.689C99.1989 132.513 101.936 133.228 101.936 133.228C101.936 133.228 134.689 139.672 135.982 140.103C137.274 140.533 138.729 140.927 139.278 142.575C139.828 144.223 135.982 146.696 133.509 148.344C131.037 149.992 129.389 150.816 129.389 150.816L151.36 150.221L154.113 145.871C154.113 145.871 156.536 142.546 155.761 140.103C154.986 137.659 153.833 136.806 151.36 135.982C148.888 135.158 117.111 131.121 113.36 131.121C109.61 131.121 112.082 129.961 112.082 129.961C112.082 129.961 121.001 126.624 120.323 125.268Z" fill="url(#paint19_linear_171_3)"/>
<path d="M68.0652 129.635C69.6792 128.745 92.6046 124.529 92.6046 124.529C92.6046 124.529 94.2516 124.463 94.2845 125.286C94.3175 126.11 92.7035 126.999 92.7035 126.999C92.7035 126.999 80.4832 130.787 79.6927 131.644C78.9021 132.5 79.7586 133.291 79.7586 133.291L80.615 134.081C81.4714 134.872 104.792 140.537 104.792 140.537C104.792 140.537 108.136 141.648 108.185 142.876C108.234 144.103 105.813 145.445 105.813 145.445L96.1624 151.605L69.8442 153.483L92.539 143.502L70.0087 136.98C70.0087 136.98 67.5053 136.255 66.583 133.818C65.6607 131.381 66.4512 130.524 68.0652 129.635Z" fill="url(#paint20_linear_171_3)"/>
<g filter="url(#filter0_d_171_3)">
<path d="M179.641 111.731C182.78 100.876 182.106 89.2747 177.732 78.8565C173.359 68.4383 165.549 59.8321 155.603 54.4705L147.918 68.7264C154.606 72.332 159.858 78.1194 162.799 85.1254C165.74 92.1313 166.193 99.9332 164.083 107.233L179.641 111.731Z" fill="#10B981"/>
<path d="M109.681 37.7677C98.6613 35.2733 87.1192 36.6283 76.9763 41.6071C66.8335 46.586 58.7016 54.8883 53.9343 65.1323L68.6176 71.9656C71.8235 65.0768 77.292 59.4937 84.1128 56.1456C90.9336 52.7974 98.6954 51.8862 106.106 53.5636L109.681 37.7677Z" fill="#10B981"/>
<path d="M38.4569 108.204C35.9246 119.216 37.2399 130.763 42.1838 140.923C47.1277 151.083 55.4021 159.243 65.6296 164.045L72.5134 149.386C65.6356 146.156 60.0714 140.668 56.7467 133.836C53.4221 127.004 52.5376 119.239 54.2404 111.834L38.4569 108.204Z" fill="#10B981"/>
<path d="M108.548 179.974C119.57 182.462 131.111 181.1 141.251 176.115C151.391 171.13 159.518 162.822 164.279 152.575L149.591 145.751C146.39 152.642 140.924 158.228 134.106 161.581C127.287 164.933 119.526 165.849 112.114 164.176L108.548 179.974Z" fill="#10B981"/>
<rect x="29.5852" y="74.6182" width="47.7997" height="13.1861" transform="rotate(19.4142 29.5852 74.6182)" fill="#10B981"/>
<rect x="146.176" y="115.709" width="47.7997" height="13.1861" transform="rotate(19.4142 146.176 115.709)" fill="#10B981"/>
<rect x="116.168" y="71.9277" width="47.7997" height="13.1861" transform="rotate(-70.5858 116.168 71.9277)" fill="#10B981"/>
<rect x="76.1726" y="185.409" width="47.7997" height="13.1861" transform="rotate(-70.5858 76.1726 185.409)" fill="#10B981"/>
</g>
<defs>
<filter id="filter0_d_171_3" x="8.7195" y="10.3633" width="199.021" height="195.912" filterUnits="userSpaceOnUse" color-interpolation-filters="sRGB">
<feFlood flood-opacity="0" result="BackgroundImageFix"/>
<feColorMatrix in="SourceAlpha" type="matrix" values="0 0 0 0 0 0 0 0 0 0 0 0 0 0 0 0 0 0 127 0" result="hardAlpha"/>
<feOffset/>
<feGaussianBlur stdDeviation="8.24132"/>
<feComposite in2="hardAlpha" operator="out"/>
<feColorMatrix type="matrix" values="0 0 0 0 0.542626 0 0 0 0 0.793012 0 0 0 0 0.417433 0 0 0 1 0"/>
<feBlend mode="normal" in2="BackgroundImageFix" result="effect1_dropShadow_171_3"/>
<feBlend mode="normal" in="SourceGraphic" in2="effect1_dropShadow_171_3" result="shape"/>
</filter>
<linearGradient id="paint0_linear_171_3" x1="175.511" y1="89.0062" x2="175.511" y2="117.027" gradientUnits="userSpaceOnUse">
<stop stop-color="#31511E"/>
<stop offset="1" stop-color="#6FB744"/>
</linearGradient>
<linearGradient id="paint1_linear_171_3" x1="169.763" y1="87.358" x2="169.763" y2="89.5838" gradientUnits="userSpaceOnUse">
<stop stop-color="#31511E"/>
<stop offset="1" stop-color="#6FB744"/>
</linearGradient>
<linearGradient id="paint2_linear_171_3" x1="181.301" y1="87.358" x2="181.301" y2="89.5838" gradientUnits="userSpaceOnUse">
<stop stop-color="#31511E"/>
<stop offset="1" stop-color="#6FB744"/>
</linearGradient>
<linearGradient id="paint3_linear_171_3" x1="174.687" y1="86.3083" x2="173.687" y2="86.3083" gradientUnits="userSpaceOnUse">
<stop stop-color="#31511E"/>
<stop offset="1" stop-color="#6FB744"/>
</linearGradient>
<linearGradient id="paint4_linear_171_3" x1="140.691" y1="75.8202" x2="140.691" y2="110.434" gradientUnits="userSpaceOnUse">
<stop stop-color="#31511E"/>
<stop offset="1" stop-color="#6FB744"/>
</linearGradient>
<linearGradient id="paint5_linear_171_3" x1="139.286" y1="74.7495" x2="138.286" y2="74.7495" gradientUnits="userSpaceOnUse">
<stop stop-color="#31511E"/>
<stop offset="1" stop-color="#6FB744"/>
</linearGradient>
<linearGradient id="paint6_linear_171_3" x1="152.45" y1="107.46" x2="152.45" y2="117.476" gradientUnits="userSpaceOnUse">
<stop stop-color="#31511E"/>
<stop offset="1" stop-color="#6FB744"/>
</linearGradient>
<linearGradient id="paint7_linear_171_3" x1="152.45" y1="98.5573" x2="152.45" y2="107.46" gradientUnits="userSpaceOnUse">
<stop stop-color="#31511E"/>
<stop offset="1" stop-color="#6FB744"/>
</linearGradient>
<linearGradient id="paint8_linear_171_3" x1="88.7659" y1="97.0494" x2="88.7659" y2="117.081" gradientUnits="userSpaceOnUse">
<stop stop-color="#31511E"/>
<stop offset="1" stop-color="#6FB744"/>
</linearGradient>
<linearGradient id="paint9_linear_171_3" x1="73.7418" y1="77.0173" x2="73.7418" y2="117.081" gradientUnits="userSpaceOnUse">
<stop stop-color="#31511E"/>
<stop offset="1" stop-color="#6FB744"/>
</linearGradient>
<linearGradient id="paint10_linear_171_3" x1="68.1774" y1="74.7916" x2="68.1774" y2="77.0174" gradientUnits="userSpaceOnUse">
<stop stop-color="#31511E"/>
<stop offset="1" stop-color="#6FB744"/>
</linearGradient>
<linearGradient id="paint11_linear_171_3" x1="79.3063" y1="74.7916" x2="79.3063" y2="77.0174" gradientUnits="userSpaceOnUse">
<stop stop-color="#31511E"/>
<stop offset="1" stop-color="#6FB744"/>
</linearGradient>
<linearGradient id="paint12_linear_171_3" x1="72.0725" y1="73.1223" x2="71.0725" y2="73.1223" gradientUnits="userSpaceOnUse">
<stop stop-color="#31511E"/>
<stop offset="1" stop-color="#6FB744"/>
</linearGradient>
<linearGradient id="paint13_linear_171_3" x1="86.54" y1="93.1543" x2="85.54" y2="93.1543" gradientUnits="userSpaceOnUse">
<stop stop-color="#31511E"/>
<stop offset="1" stop-color="#6FB744"/>
</linearGradient>
<linearGradient id="paint14_linear_171_3" x1="89.8789" y1="94.8236" x2="88.8789" y2="94.8236" gradientUnits="userSpaceOnUse">
<stop stop-color="#31511E"/>
<stop offset="1" stop-color="#6FB744"/>
</linearGradient>
<linearGradient id="paint15_linear_171_3" x1="40.1763" y1="74.1719" x2="40.1763" y2="108.785" gradientUnits="userSpaceOnUse">
<stop stop-color="#31511E"/>
<stop offset="1" stop-color="#6FB744"/>
</linearGradient>
<linearGradient id="paint16_linear_171_3" x1="2.22578" y1="0" x2="2.22578" y2="1" gradientUnits="userSpaceOnUse">
<stop stop-color="#31511E"/>
<stop offset="1" stop-color="#6FB744"/>
</linearGradient>
<linearGradient id="paint17_linear_171_3" x1="51.9054" y1="107.799" x2="51.9054" y2="117.815" gradientUnits="userSpaceOnUse">
<stop stop-color="#31511E"/>
<stop offset="1" stop-color="#6FB744"/>
</linearGradient>
<linearGradient id="paint18_linear_171_3" x1="51.9054" y1="98.896" x2="51.9054" y2="107.799" gradientUnits="userSpaceOnUse">
<stop stop-color="#31511E"/>
<stop offset="1" stop-color="#6FB744"/>
</linearGradient>
<linearGradient id="paint19_linear_171_3" x1="127.856" y1="127.242" x2="129.79" y2="151.904" gradientUnits="userSpaceOnUse">
<stop stop-color="#31511E"/>
<stop offset="1" stop-color="white"/>
</linearGradient>
<linearGradient id="paint20_linear_171_3" x1="85.8256" y1="128.099" x2="85.8588" y2="149.543" gradientUnits="userSpaceOnUse">
<stop stop-color="#31511E"/>
<stop offset="1" stop-color="white"/>
</linearGradient>
</defs>
</svg>
