<svg width="222" height="222" viewBox="0 0 222 222" fill="none" xmlns="http://www.w3.org/2000/svg">
<g opacity="0.7">
<rect x="168.445" y="93.0062" width="18.1309" height="28.0205" fill="url(#paint0_linear_102_5)"/>
<rect x="170.094" y="94.6545" width="14.4676" height="1.04743" fill="#F6FCDF"/>
<rect x="170.094" y="97.7968" width="14.4676" height="1.04743" fill="#F6FCDF"/>
<rect x="170.094" y="100.939" width="14.4676" height="1.04743" fill="#F6FCDF"/>
<rect x="170.094" y="104.081" width="14.4676" height="1.04743" fill="#F6FCDF"/>
<rect x="170.094" y="107.224" width="14.4676" height="1.04743" fill="#F6FCDF"/>
<rect x="170.094" y="110.366" width="14.4676" height="1.04743" fill="#F6FCDF"/>
<rect x="170.094" y="113.508" width="14.4676" height="1.04743" fill="#F6FCDF"/>
<rect x="170.094" y="116.651" width="14.4676" height="1.04743" fill="#F6FCDF"/>
<rect x="170.094" y="91.358" width="3.33867" height="2.22578" fill="url(#paint1_linear_102_5)"/>
<rect x="181.631" y="91.358" width="3.33867" height="2.22578" fill="url(#paint2_linear_102_5)"/>
<line x1="176.853" y1="86.4132" x2="176.853" y2="94.2034" stroke="url(#paint3_linear_102_5)" stroke-width="0.333867"/>
<path d="M141.511 79.8202L138.889 89.5225V105.78H138.102V104.994H136.267V105.78H135.48V114.434H149.902V112.074L147.28 111.287V105.78H146.756V104.994H145.707V105.78H144.396V89.5225L141.511 79.8202Z" fill="url(#paint4_linear_102_5)"/>
<line x1="141.453" y1="76.5237" x2="141.453" y2="80.9752" stroke="url(#paint5_linear_102_5)" stroke-width="0.333867"/>
<rect x="133.861" y="111.46" width="41.177" height="10.016" fill="url(#paint6_linear_102_5)"/>
<rect x="141.652" y="102.557" width="25.5965" height="8.90313" fill="url(#paint7_linear_102_5)"/>
<rect x="143.877" y="104.783" width="2.22578" height="2.22578" fill="#F6FCDF"/>
<rect x="147.216" y="104.783" width="2.22578" height="2.22578" fill="#F6FCDF"/>
<rect x="143.877" y="108.122" width="2.22578" height="2.22578" fill="#F6FCDF"/>
<rect x="147.216" y="108.122" width="2.22578" height="2.22578" fill="#F6FCDF"/>
<rect x="136.087" y="113.686" width="2.22578" height="2.22578" fill="#F6FCDF"/>
<rect x="139.426" y="113.686" width="2.22578" height="2.22578" fill="#F6FCDF"/>
<rect x="136.087" y="117.025" width="2.22578" height="2.22578" fill="#F6FCDF"/>
<rect x="139.426" y="117.025" width="2.22578" height="2.22578" fill="#F6FCDF"/>
<rect x="143.877" y="113.686" width="2.22578" height="2.22578" fill="#F6FCDF"/>
<rect x="147.216" y="113.686" width="2.22578" height="2.22578" fill="#F6FCDF"/>
<rect x="143.877" y="117.025" width="2.22578" height="2.22578" fill="#F6FCDF"/>
<rect x="147.216" y="117.025" width="2.22578" height="2.22578" fill="#F6FCDF"/>
<rect x="151.667" y="113.686" width="2.22578" height="2.22578" fill="#F6FCDF"/>
<rect x="155.006" y="113.686" width="2.22578" height="2.22578" fill="#F6FCDF"/>
<rect x="151.667" y="117.025" width="2.22578" height="2.22578" fill="#F6FCDF"/>
<rect x="155.006" y="117.025" width="2.22578" height="2.22578" fill="#F6FCDF"/>
<rect x="159.458" y="113.686" width="2.22578" height="2.22578" fill="#F6FCDF"/>
<rect x="162.796" y="113.686" width="2.22578" height="2.22578" fill="#F6FCDF"/>
<rect x="159.458" y="117.025" width="2.22578" height="2.22578" fill="#F6FCDF"/>
<rect x="162.796" y="117.025" width="2.22578" height="2.22578" fill="#F6FCDF"/>
<rect x="167.248" y="113.686" width="2.22578" height="2.22578" fill="#F6FCDF"/>
<rect x="170.587" y="113.686" width="2.22578" height="2.22578" fill="#F6FCDF"/>
<rect x="167.248" y="117.025" width="2.22578" height="2.22578" fill="#F6FCDF"/>
<rect x="170.587" y="117.025" width="2.22578" height="2.22578" fill="#F6FCDF"/>
<rect x="151.667" y="104.783" width="2.22578" height="2.22578" fill="#F6FCDF"/>
<rect x="155.006" y="104.783" width="2.22578" height="2.22578" fill="#F6FCDF"/>
<rect x="151.667" y="108.122" width="2.22578" height="2.22578" fill="#F6FCDF"/>
<rect x="155.006" y="108.122" width="2.22578" height="2.22578" fill="#F6FCDF"/>
<rect x="159.458" y="104.783" width="2.22578" height="2.22578" fill="#F6FCDF"/>
<rect x="162.796" y="104.783" width="2.22578" height="2.22578" fill="#F6FCDF"/>
<rect x="159.458" y="108.122" width="2.22578" height="2.22578" fill="#F6FCDF"/>
<rect x="162.796" y="108.122" width="2.22578" height="2.22578" fill="#F6FCDF"/>
</g>
<g opacity="0.7">
<rect x="85.2014" y="101.049" width="11.1289" height="20.032" fill="url(#paint8_linear_102_5)"/>
<rect x="66.2822" y="81.0173" width="18.9191" height="40.0641" fill="url(#paint9_linear_102_5)"/>
<rect x="68.5081" y="83.243" width="14.4676" height="1.04743" fill="#F6FCDF"/>
<rect x="68.5081" y="86.3853" width="14.4676" height="1.04743" fill="#F6FCDF"/>
<rect x="68.5081" y="89.5276" width="14.4676" height="1.04743" fill="#F6FCDF"/>
<rect x="68.5081" y="92.6699" width="14.4676" height="1.04743" fill="#F6FCDF"/>
<rect x="68.5081" y="95.8123" width="14.4676" height="1.04743" fill="#F6FCDF"/>
<rect x="68.5081" y="98.9546" width="14.4676" height="1.04743" fill="#F6FCDF"/>
<rect x="68.5081" y="102.097" width="14.4676" height="1.04743" fill="#F6FCDF"/>
<rect x="68.5081" y="105.239" width="14.4676" height="1.04743" fill="#F6FCDF"/>
<rect x="68.5081" y="108.381" width="14.4676" height="1.04743" fill="#F6FCDF"/>
<rect x="68.5081" y="111.524" width="14.4676" height="1.04743" fill="#F6FCDF"/>
<rect x="68.5081" y="114.666" width="14.4676" height="1.04743" fill="#F6FCDF"/>
<rect x="68.5081" y="117.808" width="14.4676" height="1.04743" fill="#F6FCDF"/>
<rect x="68.5081" y="78.7916" width="3.33867" height="2.22578" fill="url(#paint10_linear_102_5)"/>
<rect x="79.637" y="78.7916" width="3.33867" height="2.22578" fill="url(#paint11_linear_102_5)"/>
<line x1="74.2394" y1="73.2272" x2="74.2394" y2="81.0174" stroke="url(#paint12_linear_102_5)" stroke-width="0.333867"/>
<line x1="88.707" y1="93.2592" x2="88.707" y2="101.049" stroke="url(#paint13_linear_102_5)" stroke-width="0.333867"/>
<line x1="92.0458" y1="96.5978" x2="92.0458" y2="101.049" stroke="url(#paint14_linear_102_5)" stroke-width="0.333867"/>
<path d="M43.3563 78.1719L45.9786 87.8742V104.132H46.7652V103.345H48.6008V104.132H49.3875V112.785H34.9652V110.425L37.5874 109.639V104.132H38.1119V103.345H39.1608V104.132H40.4719V87.8742L43.3563 78.1719Z" fill="url(#paint15_linear_102_5)"/>
<line y1="-0.166934" x2="4.45156" y2="-0.166934" transform="matrix(0 1 1 0 43.5811 74.8754)" stroke="url(#paint16_linear_102_5)" stroke-width="0.333867"/>
<rect x="33.3169" y="111.799" width="41.177" height="10.016" fill="url(#paint17_linear_102_5)"/>
<rect x="41.1072" y="102.896" width="25.5965" height="8.90313" fill="url(#paint18_linear_102_5)"/>
<rect x="43.3328" y="105.122" width="2.22578" height="2.22578" fill="#F6FCDF"/>
<rect x="46.6714" y="105.122" width="2.22578" height="2.22578" fill="#F6FCDF"/>
<rect x="43.3328" y="108.46" width="2.22578" height="2.22578" fill="#F6FCDF"/>
<rect x="46.6714" y="108.46" width="2.22578" height="2.22578" fill="#F6FCDF"/>
<rect x="35.5427" y="114.025" width="2.22578" height="2.22578" fill="#F6FCDF"/>
<rect x="38.8816" y="114.025" width="2.22578" height="2.22578" fill="#F6FCDF"/>
<rect x="35.5427" y="117.364" width="2.22578" height="2.22578" fill="#F6FCDF"/>
<rect x="38.8816" y="117.364" width="2.22578" height="2.22578" fill="#F6FCDF"/>
<rect x="43.3328" y="114.025" width="2.22578" height="2.22578" fill="#F6FCDF"/>
<rect x="46.6714" y="114.025" width="2.22578" height="2.22578" fill="#F6FCDF"/>
<rect x="43.3328" y="117.364" width="2.22578" height="2.22578" fill="#F6FCDF"/>
<rect x="46.6714" y="117.364" width="2.22578" height="2.22578" fill="#F6FCDF"/>
<rect x="51.123" y="114.025" width="2.22578" height="2.22578" fill="#F6FCDF"/>
<rect x="54.4619" y="114.025" width="2.22578" height="2.22578" fill="#F6FCDF"/>
<rect x="51.123" y="117.364" width="2.22578" height="2.22578" fill="#F6FCDF"/>
<rect x="54.4619" y="117.364" width="2.22578" height="2.22578" fill="#F6FCDF"/>
<rect x="58.9136" y="114.025" width="2.22578" height="2.22578" fill="#F6FCDF"/>
<rect x="62.2522" y="114.025" width="2.22578" height="2.22578" fill="#F6FCDF"/>
<rect x="58.9136" y="117.364" width="2.22578" height="2.22578" fill="#F6FCDF"/>
<rect x="62.2522" y="117.364" width="2.22578" height="2.22578" fill="#F6FCDF"/>
<rect x="66.7036" y="114.025" width="2.22578" height="2.22578" fill="#F6FCDF"/>
<rect x="70.0422" y="114.025" width="2.22578" height="2.22578" fill="#F6FCDF"/>
<rect x="66.7036" y="117.364" width="2.22578" height="2.22578" fill="#F6FCDF"/>
<rect x="70.0422" y="117.364" width="2.22578" height="2.22578" fill="#F6FCDF"/>
<rect x="51.123" y="105.122" width="2.22578" height="2.22578" fill="#F6FCDF"/>
<rect x="54.4619" y="105.122" width="2.22578" height="2.22578" fill="#F6FCDF"/>
<rect x="51.123" y="108.46" width="2.22578" height="2.22578" fill="#F6FCDF"/>
<rect x="54.4619" y="108.46" width="2.22578" height="2.22578" fill="#F6FCDF"/>
<rect x="58.9136" y="105.122" width="2.22578" height="2.22578" fill="#F6FCDF"/>
<rect x="62.2522" y="105.122" width="2.22578" height="2.22578" fill="#F6FCDF"/>
<rect x="58.9136" y="108.46" width="2.22578" height="2.22578" fill="#F6FCDF"/>
<rect x="62.2522" y="108.46" width="2.22578" height="2.22578" fill="#F6FCDF"/>
</g>
<path fill-rule="evenodd" clip-rule="evenodd" d="M118.828 88.9223C108.684 86.1902 105.465 88.0432 105.465 88.0432L96.0514 97.7475C96.0514 97.7475 94.4419 98.674 93.4664 99.7712C92.4909 100.868 91.8079 103.404 91.8079 103.404L91.9533 112.963L90.7581 117.401C90.7581 117.401 90.594 119.397 93.4158 120.157C96.2375 120.917 97.732 119.28 97.732 119.28L98.9272 114.842L122.385 121.159L121.46 125.67C121.46 125.67 121.311 127.67 123.847 128.353C126.383 129.036 127.53 127.305 127.53 127.305L128.725 122.867L134.285 114.845C134.285 114.845 134.968 112.309 134.676 110.87C134.383 109.431 133.457 107.822 133.457 107.822L130.191 94.7025C130.191 94.7025 128.972 91.6543 118.828 88.9223ZM107.318 91.2622C107.318 91.2622 109.561 90.5064 117.803 92.7262C126.045 94.946 126.972 96.5555 126.972 96.5555L127.8 103.578L103.074 96.9191L107.318 91.2622Z" fill="#31511E"/>
<path d="M122.323 129.268C121.645 127.912 103.128 133.961 103.128 133.961C103.128 133.961 101.133 134.866 101.166 135.689C101.199 136.513 103.936 137.228 103.936 137.228C103.936 137.228 136.689 143.672 137.982 144.103C139.274 144.533 140.729 144.927 141.278 146.575C141.828 148.223 137.982 150.696 135.509 152.344C133.037 153.992 131.389 154.816 131.389 154.816L153.36 154.221L156.113 149.871C156.113 149.871 158.536 146.546 157.761 144.103C156.986 141.659 155.833 140.806 153.36 139.982C150.888 139.158 119.111 135.121 115.36 135.121C111.61 135.121 114.082 133.961 114.082 133.961C114.082 133.961 123.001 130.624 122.323 129.268Z" fill="url(#paint19_linear_102_5)"/>
<path d="M70.0652 133.635C71.6792 132.745 94.6046 128.529 94.6046 128.529C94.6046 128.529 96.2516 128.463 96.2845 129.286C96.3175 130.11 94.7035 130.999 94.7035 130.999C94.7035 130.999 82.4832 134.787 81.6927 135.644C80.9021 136.5 81.7586 137.291 81.7586 137.291L82.615 138.081C83.4714 138.872 106.792 144.537 106.792 144.537C106.792 144.537 110.136 145.648 110.185 146.876C110.234 148.103 107.813 149.445 107.813 149.445L98.1624 155.605L71.8442 157.483L94.539 147.502L72.0087 140.98C72.0087 140.98 69.5053 140.255 68.583 137.818C67.6607 135.381 68.4512 134.524 70.0652 133.635Z" fill="url(#paint20_linear_102_5)"/>
<path d="M222 111C222 172.304 172.304 222 111 222C49.6964 222 0 172.304 0 111C0 49.6964 49.6964 0 111 0C172.304 0 222 49.6964 222 111Z" fill="url(#paint21_radial_102_5)"/>
<g filter="url(#filter0_d_102_5)">
<path d="M181.641 115.731C184.78 104.876 184.106 93.2747 179.732 82.8565C175.359 72.4383 167.549 63.8321 157.603 58.4705L149.918 72.7264C156.606 76.332 161.858 82.1194 164.799 89.1254C167.74 96.1313 168.193 103.933 166.083 111.233L181.641 115.731Z" fill="#10B981"/>
<path d="M111.681 41.7677C100.661 39.2733 89.1192 40.6283 78.9763 45.6071C68.8335 50.586 60.7016 58.8883 55.9343 69.1323L70.6176 75.9656C73.8235 69.0768 79.292 63.4937 86.1128 60.1456C92.9336 56.7974 100.695 55.8862 108.106 57.5636L111.681 41.7677Z" fill="#10B981"/>
<path d="M40.4569 112.204C37.9246 123.216 39.2399 134.763 44.1838 144.923C49.1277 155.083 57.4021 163.243 67.6296 168.045L74.5134 153.386C67.6356 150.156 62.0714 144.668 58.7467 137.836C55.4221 131.004 54.5376 123.239 56.2404 115.834L40.4569 112.204Z" fill="#10B981"/>
<path d="M110.548 183.974C121.57 186.462 133.111 185.1 143.251 180.115C153.391 175.13 161.518 166.822 166.279 156.575L151.591 149.751C148.39 156.642 142.924 162.228 136.106 165.581C129.287 168.933 121.526 169.849 114.114 168.176L110.548 183.974Z" fill="#10B981"/>
<rect x="31.5852" y="78.6182" width="47.7997" height="13.1861" transform="rotate(19.4142 31.5852 78.6182)" fill="#10B981"/>
<rect x="148.176" y="119.709" width="47.7997" height="13.1861" transform="rotate(19.4142 148.176 119.709)" fill="#10B981"/>
<rect x="118.168" y="75.9277" width="47.7997" height="13.1861" transform="rotate(-70.5858 118.168 75.9277)" fill="#10B981"/>
<rect x="78.1726" y="189.409" width="47.7997" height="13.1861" transform="rotate(-70.5858 78.1726 189.409)" fill="#10B981"/>
</g>
<defs>
<filter id="filter0_d_102_5" x="10.7195" y="14.3633" width="199.021" height="195.912" filterUnits="userSpaceOnUse" color-interpolation-filters="sRGB">
<feFlood flood-opacity="0" result="BackgroundImageFix"/>
<feColorMatrix in="SourceAlpha" type="matrix" values="0 0 0 0 0 0 0 0 0 0 0 0 0 0 0 0 0 0 127 0" result="hardAlpha"/>
<feOffset/>
<feGaussianBlur stdDeviation="8.24132"/>
<feComposite in2="hardAlpha" operator="out"/>
<feColorMatrix type="matrix" values="0 0 0 0 0.542626 0 0 0 0 0.793012 0 0 0 0 0.417433 0 0 0 1 0"/>
<feBlend mode="normal" in2="BackgroundImageFix" result="effect1_dropShadow_102_5"/>
<feBlend mode="normal" in="SourceGraphic" in2="effect1_dropShadow_102_5" result="shape"/>
</filter>
<linearGradient id="paint0_linear_102_5" x1="177.511" y1="93.0062" x2="177.511" y2="121.027" gradientUnits="userSpaceOnUse">
<stop stop-color="#31511E"/>
<stop offset="1" stop-color="#6FB744"/>
</linearGradient>
<linearGradient id="paint1_linear_102_5" x1="171.763" y1="91.358" x2="171.763" y2="93.5838" gradientUnits="userSpaceOnUse">
<stop stop-color="#31511E"/>
<stop offset="1" stop-color="#6FB744"/>
</linearGradient>
<linearGradient id="paint2_linear_102_5" x1="183.301" y1="91.358" x2="183.301" y2="93.5838" gradientUnits="userSpaceOnUse">
<stop stop-color="#31511E"/>
<stop offset="1" stop-color="#6FB744"/>
</linearGradient>
<linearGradient id="paint3_linear_102_5" x1="176.687" y1="90.3083" x2="175.687" y2="90.3083" gradientUnits="userSpaceOnUse">
<stop stop-color="#31511E"/>
<stop offset="1" stop-color="#6FB744"/>
</linearGradient>
<linearGradient id="paint4_linear_102_5" x1="142.691" y1="79.8202" x2="142.691" y2="114.434" gradientUnits="userSpaceOnUse">
<stop stop-color="#31511E"/>
<stop offset="1" stop-color="#6FB744"/>
</linearGradient>
<linearGradient id="paint5_linear_102_5" x1="141.286" y1="78.7495" x2="140.286" y2="78.7495" gradientUnits="userSpaceOnUse">
<stop stop-color="#31511E"/>
<stop offset="1" stop-color="#6FB744"/>
</linearGradient>
<linearGradient id="paint6_linear_102_5" x1="154.45" y1="111.46" x2="154.45" y2="121.476" gradientUnits="userSpaceOnUse">
<stop stop-color="#31511E"/>
<stop offset="1" stop-color="#6FB744"/>
</linearGradient>
<linearGradient id="paint7_linear_102_5" x1="154.45" y1="102.557" x2="154.45" y2="111.46" gradientUnits="userSpaceOnUse">
<stop stop-color="#31511E"/>
<stop offset="1" stop-color="#6FB744"/>
</linearGradient>
<linearGradient id="paint8_linear_102_5" x1="90.7659" y1="101.049" x2="90.7659" y2="121.081" gradientUnits="userSpaceOnUse">
<stop stop-color="#31511E"/>
<stop offset="1" stop-color="#6FB744"/>
</linearGradient>
<linearGradient id="paint9_linear_102_5" x1="75.7418" y1="81.0173" x2="75.7418" y2="121.081" gradientUnits="userSpaceOnUse">
<stop stop-color="#31511E"/>
<stop offset="1" stop-color="#6FB744"/>
</linearGradient>
<linearGradient id="paint10_linear_102_5" x1="70.1774" y1="78.7916" x2="70.1774" y2="81.0174" gradientUnits="userSpaceOnUse">
<stop stop-color="#31511E"/>
<stop offset="1" stop-color="#6FB744"/>
</linearGradient>
<linearGradient id="paint11_linear_102_5" x1="81.3063" y1="78.7916" x2="81.3063" y2="81.0174" gradientUnits="userSpaceOnUse">
<stop stop-color="#31511E"/>
<stop offset="1" stop-color="#6FB744"/>
</linearGradient>
<linearGradient id="paint12_linear_102_5" x1="74.0725" y1="77.1223" x2="73.0725" y2="77.1223" gradientUnits="userSpaceOnUse">
<stop stop-color="#31511E"/>
<stop offset="1" stop-color="#6FB744"/>
</linearGradient>
<linearGradient id="paint13_linear_102_5" x1="88.54" y1="97.1543" x2="87.54" y2="97.1543" gradientUnits="userSpaceOnUse">
<stop stop-color="#31511E"/>
<stop offset="1" stop-color="#6FB744"/>
</linearGradient>
<linearGradient id="paint14_linear_102_5" x1="91.8789" y1="98.8236" x2="90.8789" y2="98.8236" gradientUnits="userSpaceOnUse">
<stop stop-color="#31511E"/>
<stop offset="1" stop-color="#6FB744"/>
</linearGradient>
<linearGradient id="paint15_linear_102_5" x1="42.1763" y1="78.1719" x2="42.1763" y2="112.785" gradientUnits="userSpaceOnUse">
<stop stop-color="#31511E"/>
<stop offset="1" stop-color="#6FB744"/>
</linearGradient>
<linearGradient id="paint16_linear_102_5" x1="2.22578" y1="0" x2="2.22578" y2="1" gradientUnits="userSpaceOnUse">
<stop stop-color="#31511E"/>
<stop offset="1" stop-color="#6FB744"/>
</linearGradient>
<linearGradient id="paint17_linear_102_5" x1="53.9054" y1="111.799" x2="53.9054" y2="121.815" gradientUnits="userSpaceOnUse">
<stop stop-color="#31511E"/>
<stop offset="1" stop-color="#6FB744"/>
</linearGradient>
<linearGradient id="paint18_linear_102_5" x1="53.9054" y1="102.896" x2="53.9054" y2="111.799" gradientUnits="userSpaceOnUse">
<stop stop-color="#31511E"/>
<stop offset="1" stop-color="#6FB744"/>
</linearGradient>
<linearGradient id="paint19_linear_102_5" x1="129.856" y1="131.242" x2="131.79" y2="155.904" gradientUnits="userSpaceOnUse">
<stop stop-color="#31511E"/>
<stop offset="1" stop-color="white"/>
</linearGradient>
<linearGradient id="paint20_linear_102_5" x1="87.8256" y1="132.099" x2="87.8588" y2="153.543" gradientUnits="userSpaceOnUse">
<stop stop-color="#31511E"/>
<stop offset="1" stop-color="white"/>
</linearGradient>
<radialGradient id="paint21_radial_102_5" cx="0" cy="0" r="1" gradientUnits="userSpaceOnUse" gradientTransform="translate(110.484 111.516) rotate(165.939) scale(99.6668)">
<stop offset="0.5" stop-color="white" stop-opacity="0"/>
<stop offset="1" stop-color="white"/>
</radialGradient>
</defs>
</svg>
