<svg width="654" height="226" viewBox="0 0 654 226" fill="none" xmlns="http://www.w3.org/2000/svg">
<g filter="url(#filter0_d_179_1218)">
<path d="M322.734 163.646C319.971 164.613 318.589 163.819 318.589 161.263V67.9046H334.339V99.5076H349.156V113.392H334.339V159.605L322.734 163.646ZM291.752 99.7148L316.102 132.25L304.083 140.332L283.774 112.978L262.533 141.576L250.617 133.494L275.796 99.7148V72.7746H291.752V99.7148ZM349.266 153.181V139.503H380.247V111.32H396.204V139.503H440.863V153.181H349.266ZM360.146 88.0062V74.536H428.947V124.686L417.342 128.727C414.579 129.694 413.197 128.9 413.197 126.344V88.0062H360.146ZM481.276 161.885V126.137H545.932V161.885H481.276ZM530.183 139.4H497.025V148.622H530.183V139.4ZM545.932 119.195L534.327 123.236C531.564 124.203 530.183 123.408 530.183 120.853V67.9046H545.932V86.5555H560.128V100.44H545.932V119.195ZM485.524 89.4568H518.888V101.062H485.524V106.761H525.52V119.609H469.567V71.5312H519.406V84.3796H485.524V89.4568ZM644.789 142.716C644.789 145.064 644.34 147.413 643.442 149.761C642.613 152.11 641.266 154.217 639.401 156.082C637.535 157.947 635.083 159.467 632.044 160.641C629.073 161.816 625.447 162.403 621.164 162.403H598.576C594.293 162.403 590.632 161.816 587.592 160.641C584.622 159.467 582.204 157.947 580.339 156.082C578.474 154.217 577.093 152.11 576.195 149.761C575.366 147.413 574.951 145.064 574.951 142.716C574.951 140.367 575.366 138.018 576.195 135.67C577.093 133.321 578.474 131.214 580.339 129.349C582.204 127.484 584.622 125.964 587.592 124.79C590.632 123.616 594.293 123.028 598.576 123.028H621.164C625.447 123.028 629.073 123.616 632.044 124.79C635.083 125.964 637.535 127.484 639.401 129.349C641.266 131.214 642.613 133.321 643.442 135.67C644.34 138.018 644.789 140.367 644.789 142.716ZM598.679 85.4157V93.0834L620.542 109.351L610.595 119.816L590.701 104.896L570.081 120.853L560.238 110.387L582.722 93.2906V85.4157H564.693V71.9456H616.294V85.4157H598.679ZM632.147 121.163C629.384 122.13 628.003 121.336 628.003 118.78V101.373H613.497V87.4881H628.003V67.9046H643.752V117.122L632.147 121.163ZM628.832 142.716C628.832 140.712 628.21 139.193 626.967 138.156C625.792 137.051 624.1 136.499 621.889 136.499H597.85C595.64 136.499 593.913 137.051 592.67 138.156C591.495 139.193 590.908 140.712 590.908 142.716C590.908 144.719 591.495 146.273 592.67 147.378C593.913 148.414 595.64 148.933 597.85 148.933H621.889C624.1 148.933 625.792 148.414 626.967 147.378C628.21 146.273 628.832 144.719 628.832 142.716Z" fill="#F6FCDF"/>
</g>
<g opacity="0.7">
<rect x="87.1726" y="101.682" width="11.6601" height="20.9882" fill="url(#paint0_linear_179_1218)"/>
<rect x="67.3506" y="80.6936" width="19.8222" height="41.9764" fill="url(#paint1_linear_179_1218)"/>
<rect x="69.6826" y="83.0254" width="15.1581" height="1.09742" fill="#1F2937"/>
<rect x="69.6826" y="86.3176" width="15.1581" height="1.09742" fill="#1F2937"/>
<rect x="69.6826" y="89.6099" width="15.1581" height="1.09742" fill="#1F2937"/>
<rect x="69.6826" y="92.9023" width="15.1581" height="1.09742" fill="#1F2937"/>
<rect x="69.6826" y="96.1946" width="15.1581" height="1.09742" fill="#1F2937"/>
<rect x="69.6826" y="99.4868" width="15.1581" height="1.09742" fill="#1F2937"/>
<rect x="69.6826" y="102.779" width="15.1581" height="1.09742" fill="#1F2937"/>
<rect x="69.6826" y="106.071" width="15.1581" height="1.09742" fill="#1F2937"/>
<rect x="69.6826" y="109.364" width="15.1581" height="1.09742" fill="#1F2937"/>
<rect x="69.6826" y="112.656" width="15.1581" height="1.09742" fill="#1F2937"/>
<rect x="69.6826" y="115.948" width="15.1581" height="1.09742" fill="#1F2937"/>
<rect x="69.6826" y="119.24" width="15.1581" height="1.09742" fill="#1F2937"/>
<rect x="69.6826" y="78.3616" width="3.49803" height="2.33202" fill="url(#paint2_linear_179_1218)"/>
<rect x="81.3425" y="78.3616" width="3.49803" height="2.33202" fill="url(#paint3_linear_179_1218)"/>
<line x1="75.6874" y1="72.5315" x2="75.6874" y2="80.6936" stroke="url(#paint4_linear_179_1218)" stroke-width="0.349803"/>
<line x1="90.8456" y1="93.5198" x2="90.8456" y2="101.682" stroke="url(#paint5_linear_179_1218)" stroke-width="0.349803"/>
<line x1="94.3438" y1="97.0176" x2="94.3438" y2="101.682" stroke="url(#paint6_linear_179_1218)" stroke-width="0.349803"/>
<path d="M43.3304 77.7124L46.0778 87.8778V104.912H46.9021V104.087H48.8252V104.912H49.6495V113.978H34.5387V111.505L37.2861 110.681V104.912H37.8356V104.087H38.9346V104.912H40.3083V87.8778L43.3304 77.7124Z" fill="url(#paint7_linear_179_1218)"/>
<line y1="-0.174902" x2="4.66404" y2="-0.174902" transform="matrix(0 1 1 0 43.5659 74.2585)" stroke="url(#paint8_linear_179_1218)" stroke-width="0.349803"/>
<rect x="32.8118" y="112.945" width="43.1424" height="10.4941" fill="url(#paint9_linear_179_1218)"/>
<rect x="40.9739" y="103.616" width="26.8182" height="9.32808" fill="url(#paint10_linear_179_1218)"/>
<rect x="43.3057" y="105.948" width="2.33202" height="2.33202" fill="#1F2937"/>
<rect x="46.804" y="105.948" width="2.33202" height="2.33202" fill="#1F2937"/>
<rect x="43.3057" y="109.447" width="2.33202" height="2.33202" fill="#1F2937"/>
<rect x="46.804" y="109.447" width="2.33202" height="2.33202" fill="#1F2937"/>
<rect x="35.1438" y="115.277" width="2.33202" height="2.33202" fill="#1F2937"/>
<rect x="38.6418" y="115.277" width="2.33202" height="2.33202" fill="#1F2937"/>
<rect x="35.1438" y="118.775" width="2.33202" height="2.33202" fill="#1F2937"/>
<rect x="38.6418" y="118.775" width="2.33202" height="2.33202" fill="#1F2937"/>
<rect x="43.3057" y="115.277" width="2.33202" height="2.33202" fill="#1F2937"/>
<rect x="46.804" y="115.277" width="2.33202" height="2.33202" fill="#1F2937"/>
<rect x="43.3057" y="118.775" width="2.33202" height="2.33202" fill="#1F2937"/>
<rect x="46.804" y="118.775" width="2.33202" height="2.33202" fill="#1F2937"/>
<rect x="51.4678" y="115.277" width="2.33202" height="2.33202" fill="#1F2937"/>
<rect x="54.9658" y="115.277" width="2.33202" height="2.33202" fill="#1F2937"/>
<rect x="51.4678" y="118.775" width="2.33202" height="2.33202" fill="#1F2937"/>
<rect x="54.9658" y="118.775" width="2.33202" height="2.33202" fill="#1F2937"/>
<rect x="59.6301" y="115.277" width="2.33202" height="2.33202" fill="#1F2937"/>
<rect x="63.1279" y="115.277" width="2.33202" height="2.33202" fill="#1F2937"/>
<rect x="59.6301" y="118.775" width="2.33202" height="2.33202" fill="#1F2937"/>
<rect x="63.1279" y="118.775" width="2.33202" height="2.33202" fill="#1F2937"/>
<rect x="67.7922" y="115.277" width="2.33202" height="2.33202" fill="#1F2937"/>
<rect x="71.29" y="115.277" width="2.33202" height="2.33202" fill="#1F2937"/>
<rect x="67.7922" y="118.775" width="2.33202" height="2.33202" fill="#1F2937"/>
<rect x="71.29" y="118.775" width="2.33202" height="2.33202" fill="#1F2937"/>
<rect x="51.4678" y="105.948" width="2.33202" height="2.33202" fill="#1F2937"/>
<rect x="54.9658" y="105.948" width="2.33202" height="2.33202" fill="#1F2937"/>
<rect x="51.4678" y="109.447" width="2.33202" height="2.33202" fill="#1F2937"/>
<rect x="54.9658" y="109.447" width="2.33202" height="2.33202" fill="#1F2937"/>
<rect x="59.6301" y="105.948" width="2.33202" height="2.33202" fill="#1F2937"/>
<rect x="63.1279" y="105.948" width="2.33202" height="2.33202" fill="#1F2937"/>
<rect x="59.6301" y="109.447" width="2.33202" height="2.33202" fill="#1F2937"/>
<rect x="63.1279" y="109.447" width="2.33202" height="2.33202" fill="#1F2937"/>
</g>
<g opacity="0.7">
<rect x="174.39" y="93.2546" width="18.9963" height="29.358" fill="url(#paint11_linear_179_1218)"/>
<rect x="176.116" y="94.9817" width="15.1581" height="1.09742" fill="#1F2937"/>
<rect x="176.116" y="98.2739" width="15.1581" height="1.09742" fill="#1F2937"/>
<rect x="176.116" y="101.566" width="15.1581" height="1.09742" fill="#1F2937"/>
<rect x="176.116" y="104.859" width="15.1581" height="1.09742" fill="#1F2937"/>
<rect x="176.116" y="108.151" width="15.1581" height="1.09742" fill="#1F2937"/>
<rect x="176.116" y="111.443" width="15.1581" height="1.09742" fill="#1F2937"/>
<rect x="176.116" y="114.735" width="15.1581" height="1.09742" fill="#1F2937"/>
<rect x="176.116" y="118.028" width="15.1581" height="1.09742" fill="#1F2937"/>
<rect x="176.116" y="91.5278" width="3.49803" height="2.33202" fill="url(#paint12_linear_179_1218)"/>
<rect x="188.205" y="91.5278" width="3.49803" height="2.33202" fill="url(#paint13_linear_179_1218)"/>
<line x1="183.199" y1="86.3469" x2="183.199" y2="94.509" stroke="url(#paint14_linear_179_1218)" stroke-width="0.349803"/>
<path d="M146.17 79.4392L143.422 89.6046V106.638H142.598V105.814H140.675V106.638H139.851V115.705H154.962V113.232L152.214 112.408V106.638H151.665V105.814H150.566V106.638H149.192V89.6046L146.17 79.4392Z" fill="url(#paint15_linear_179_1218)"/>
<line x1="146.109" y1="75.9854" x2="146.109" y2="80.6494" stroke="url(#paint16_linear_179_1218)" stroke-width="0.349803"/>
<rect x="138.155" y="112.59" width="43.1424" height="10.4941" fill="url(#paint17_linear_179_1218)"/>
<rect x="146.317" y="103.261" width="26.8182" height="9.32808" fill="url(#paint18_linear_179_1218)"/>
<rect x="148.649" y="105.594" width="2.33202" height="2.33202" fill="#1F2937"/>
<rect x="152.147" y="105.594" width="2.33202" height="2.33202" fill="#1F2937"/>
<rect x="148.649" y="109.092" width="2.33202" height="2.33202" fill="#1F2937"/>
<rect x="152.147" y="109.092" width="2.33202" height="2.33202" fill="#1F2937"/>
<rect x="140.487" y="114.922" width="2.33202" height="2.33202" fill="#1F2937"/>
<rect x="143.985" y="114.922" width="2.33202" height="2.33202" fill="#1F2937"/>
<rect x="140.487" y="118.42" width="2.33202" height="2.33202" fill="#1F2937"/>
<rect x="143.985" y="118.42" width="2.33202" height="2.33202" fill="#1F2937"/>
<rect x="148.649" y="114.922" width="2.33202" height="2.33202" fill="#1F2937"/>
<rect x="152.147" y="114.922" width="2.33202" height="2.33202" fill="#1F2937"/>
<rect x="148.649" y="118.42" width="2.33202" height="2.33202" fill="#1F2937"/>
<rect x="152.147" y="118.42" width="2.33202" height="2.33202" fill="#1F2937"/>
<rect x="156.811" y="114.922" width="2.33202" height="2.33202" fill="#1F2937"/>
<rect x="160.309" y="114.922" width="2.33202" height="2.33202" fill="#1F2937"/>
<rect x="156.811" y="118.42" width="2.33202" height="2.33202" fill="#1F2937"/>
<rect x="160.309" y="118.42" width="2.33202" height="2.33202" fill="#1F2937"/>
<rect x="164.973" y="114.922" width="2.33202" height="2.33202" fill="#1F2937"/>
<rect x="168.471" y="114.922" width="2.33202" height="2.33202" fill="#1F2937"/>
<rect x="164.973" y="118.42" width="2.33202" height="2.33202" fill="#1F2937"/>
<rect x="168.471" y="118.42" width="2.33202" height="2.33202" fill="#1F2937"/>
<rect x="173.135" y="114.922" width="2.33202" height="2.33202" fill="#1F2937"/>
<rect x="176.634" y="114.922" width="2.33202" height="2.33202" fill="#1F2937"/>
<rect x="173.135" y="118.42" width="2.33202" height="2.33202" fill="#1F2937"/>
<rect x="176.634" y="118.42" width="2.33202" height="2.33202" fill="#1F2937"/>
<rect x="156.811" y="105.594" width="2.33202" height="2.33202" fill="#1F2937"/>
<rect x="160.309" y="105.594" width="2.33202" height="2.33202" fill="#1F2937"/>
<rect x="156.811" y="109.092" width="2.33202" height="2.33202" fill="#1F2937"/>
<rect x="160.309" y="109.092" width="2.33202" height="2.33202" fill="#1F2937"/>
<rect x="164.973" y="105.594" width="2.33202" height="2.33202" fill="#1F2937"/>
<rect x="168.471" y="105.594" width="2.33202" height="2.33202" fill="#1F2937"/>
<rect x="164.973" y="109.092" width="2.33202" height="2.33202" fill="#1F2937"/>
<rect x="168.471" y="109.092" width="2.33202" height="2.33202" fill="#1F2937"/>
</g>
<path fill-rule="evenodd" clip-rule="evenodd" d="M124.131 87.2487C113.503 84.3863 110.13 86.3277 110.13 86.3277L100.268 96.4952C100.268 96.4952 98.5812 97.4659 97.5592 98.6155C96.5371 99.7651 95.8215 102.422 95.8215 102.422L95.9739 112.437L94.7216 117.087C94.7216 117.087 94.5496 119.178 97.5061 119.974C100.463 120.771 102.028 119.055 102.028 119.055L103.281 114.405L127.858 121.025L126.889 125.751C126.889 125.751 126.733 127.846 129.39 128.562C132.047 129.277 133.248 127.463 133.248 127.463L134.501 122.814L140.326 114.409C140.326 114.409 141.042 111.752 140.736 110.244C140.429 108.737 139.458 107.05 139.458 107.05L136.036 93.3049C136.036 93.3049 134.759 90.1111 124.131 87.2487ZM112.072 89.7003C112.072 89.7003 114.422 88.9085 123.058 91.2342C131.693 93.56 132.664 95.2463 132.664 95.2463L133.532 102.604L107.626 95.6272L112.072 89.7003Z" fill="#F6FCDF"/>
<path d="M127.793 129.52C127.083 128.1 107.682 134.437 107.682 134.437C107.682 134.437 105.592 135.385 105.626 136.248C105.661 137.111 108.528 137.86 108.528 137.86C108.528 137.86 142.845 144.611 144.199 145.063C145.554 145.514 147.078 145.926 147.653 147.653C148.229 149.38 144.199 151.97 141.609 153.697C139.019 155.424 137.292 156.288 137.292 156.288L160.312 155.664L163.196 151.107C163.196 151.107 165.734 147.623 164.923 145.063C164.111 142.503 162.902 141.609 160.312 140.745C157.721 139.882 124.428 135.653 120.498 135.653C116.568 135.653 119.159 134.437 119.159 134.437C119.159 134.437 128.504 130.941 127.793 129.52Z" fill="url(#paint19_linear_179_1218)"/>
<path d="M73.0411 134.095C74.7321 133.163 98.7518 128.746 98.7518 128.746C98.7518 128.746 100.477 128.677 100.512 129.539C100.546 130.402 98.8554 131.334 98.8554 131.334C98.8554 131.334 86.0518 135.303 85.2236 136.2C84.3953 137.098 85.2926 137.926 85.2926 137.926L86.1899 138.754C87.0872 139.582 111.521 145.518 111.521 145.518C111.521 145.518 115.024 146.682 115.076 147.968C115.127 149.254 112.591 150.66 112.591 150.66L102.479 157.114L74.905 159.081L98.6831 148.624L75.0774 141.791C75.0774 141.791 72.4545 141.032 71.4882 138.478C70.5218 135.924 71.35 135.027 73.0411 134.095Z" fill="url(#paint20_linear_179_1218)"/>
<g filter="url(#filter1_d_179_1218)">
<path d="M188.216 117.064C191.504 105.691 190.798 93.5358 186.216 82.6204C181.633 71.7049 173.451 62.688 163.03 57.0704L154.978 72.0068C161.986 75.7845 167.488 81.8481 170.57 89.1885C173.651 96.5288 174.126 104.703 171.915 112.351L188.216 117.064Z" fill="#10B981"/>
<path d="M114.917 39.5704C103.37 36.957 91.2775 38.3766 80.6504 43.5931C70.0234 48.8096 61.5035 57.5082 56.5086 68.2412L71.8928 75.4006C75.2517 68.183 80.9812 62.3334 88.1276 58.8255C95.2739 55.3175 103.406 54.3629 111.171 56.1203L114.917 39.5704Z" fill="#10B981"/>
<path d="M40.2924 113.369C37.6393 124.906 39.0173 137.004 44.1972 147.649C49.3771 158.294 58.0464 166.844 68.7621 171.875L75.9744 156.516C68.7684 153.132 62.9386 147.383 59.4552 140.224C55.9719 133.066 55.0452 124.93 56.8293 117.172L40.2924 113.369Z" fill="#10B981"/>
<path d="M113.729 188.565C125.277 191.171 137.369 189.744 147.993 184.521C158.617 179.298 167.131 170.594 172.12 159.858L156.731 152.708C153.377 159.928 147.651 165.781 140.507 169.293C133.362 172.805 125.231 173.765 117.465 172.012L113.729 188.565Z" fill="#10B981"/>
<rect x="30.9973" y="78.1797" width="50.0812" height="13.8155" transform="rotate(19.4142 30.9973 78.1797)" fill="#10B981"/>
<rect x="153.153" y="121.232" width="50.0812" height="13.8155" transform="rotate(19.4142 153.153 121.232)" fill="#10B981"/>
<rect x="121.712" y="75.3608" width="50.0812" height="13.8155" transform="rotate(-70.5858 121.712 75.3608)" fill="#10B981"/>
<rect x="79.8086" y="194.259" width="50.0812" height="13.8155" transform="rotate(-70.5858 79.8086 194.259)" fill="#10B981"/>
</g>
<defs>
<filter id="filter0_d_179_1218" x="241.982" y="59.2698" width="411.441" height="114.462" filterUnits="userSpaceOnUse" color-interpolation-filters="sRGB">
<feFlood flood-opacity="0" result="BackgroundImageFix"/>
<feColorMatrix in="SourceAlpha" type="matrix" values="0 0 0 0 0 0 0 0 0 0 0 0 0 0 0 0 0 0 127 0" result="hardAlpha"/>
<feOffset/>
<feGaussianBlur stdDeviation="4.31735"/>
<feComposite in2="hardAlpha" operator="out"/>
<feColorMatrix type="matrix" values="0 0 0 0 0.542626 0 0 0 0 0.793012 0 0 0 0 0.417433 0 0 0 1 0"/>
<feBlend mode="normal" in2="BackgroundImageFix" result="effect1_dropShadow_179_1218"/>
<feBlend mode="normal" in="SourceGraphic" in2="effect1_dropShadow_179_1218" result="shape"/>
</filter>
<filter id="filter1_d_179_1218" x="9.13565" y="10.8578" width="208.52" height="205.263" filterUnits="userSpaceOnUse" color-interpolation-filters="sRGB">
<feFlood flood-opacity="0" result="BackgroundImageFix"/>
<feColorMatrix in="SourceAlpha" type="matrix" values="0 0 0 0 0 0 0 0 0 0 0 0 0 0 0 0 0 0 127 0" result="hardAlpha"/>
<feOffset/>
<feGaussianBlur stdDeviation="8.63469"/>
<feComposite in2="hardAlpha" operator="out"/>
<feColorMatrix type="matrix" values="0 0 0 0 0.542626 0 0 0 0 0.793012 0 0 0 0 0.417433 0 0 0 1 0"/>
<feBlend mode="normal" in2="BackgroundImageFix" result="effect1_dropShadow_179_1218"/>
<feBlend mode="normal" in="SourceGraphic" in2="effect1_dropShadow_179_1218" result="shape"/>
</filter>
<linearGradient id="paint0_linear_179_1218" x1="93.0027" y1="101.682" x2="93.0027" y2="122.67" gradientUnits="userSpaceOnUse">
<stop stop-color="#F6FCDF"/>
<stop offset="1" stop-color="#929685"/>
</linearGradient>
<linearGradient id="paint1_linear_179_1218" x1="77.2617" y1="80.6936" x2="77.2617" y2="122.67" gradientUnits="userSpaceOnUse">
<stop stop-color="#F6FCDF"/>
<stop offset="1" stop-color="#929685"/>
</linearGradient>
<linearGradient id="paint2_linear_179_1218" x1="71.4316" y1="78.3616" x2="71.4316" y2="80.6936" gradientUnits="userSpaceOnUse">
<stop stop-color="#F6FCDF"/>
<stop offset="1" stop-color="#929685"/>
</linearGradient>
<linearGradient id="paint3_linear_179_1218" x1="83.0915" y1="78.3616" x2="83.0915" y2="80.6936" gradientUnits="userSpaceOnUse">
<stop stop-color="#F6FCDF"/>
<stop offset="1" stop-color="#929685"/>
</linearGradient>
<linearGradient id="paint4_linear_179_1218" x1="75.5125" y1="76.6125" x2="74.5125" y2="76.6125" gradientUnits="userSpaceOnUse">
<stop stop-color="#F6FCDF"/>
<stop offset="1" stop-color="#929685"/>
</linearGradient>
<linearGradient id="paint5_linear_179_1218" x1="90.6707" y1="97.6008" x2="89.6707" y2="97.6008" gradientUnits="userSpaceOnUse">
<stop stop-color="#F6FCDF"/>
<stop offset="1" stop-color="#929685"/>
</linearGradient>
<linearGradient id="paint6_linear_179_1218" x1="94.1689" y1="99.3496" x2="93.1689" y2="99.3496" gradientUnits="userSpaceOnUse">
<stop stop-color="#F6FCDF"/>
<stop offset="1" stop-color="#929685"/>
</linearGradient>
<linearGradient id="paint7_linear_179_1218" x1="42.0941" y1="77.7124" x2="42.0941" y2="113.978" gradientUnits="userSpaceOnUse">
<stop stop-color="#F6FCDF"/>
<stop offset="1" stop-color="#929685"/>
</linearGradient>
<linearGradient id="paint8_linear_179_1218" x1="2.33202" y1="0" x2="2.33202" y2="1" gradientUnits="userSpaceOnUse">
<stop stop-color="#F6FCDF"/>
<stop offset="1" stop-color="#929685"/>
</linearGradient>
<linearGradient id="paint9_linear_179_1218" x1="54.383" y1="112.945" x2="54.383" y2="123.439" gradientUnits="userSpaceOnUse">
<stop stop-color="#F6FCDF"/>
<stop offset="1" stop-color="#929685"/>
</linearGradient>
<linearGradient id="paint10_linear_179_1218" x1="54.383" y1="103.616" x2="54.383" y2="112.945" gradientUnits="userSpaceOnUse">
<stop stop-color="#F6FCDF"/>
<stop offset="1" stop-color="#929685"/>
</linearGradient>
<linearGradient id="paint11_linear_179_1218" x1="183.888" y1="93.2546" x2="183.888" y2="122.613" gradientUnits="userSpaceOnUse">
<stop stop-color="#F6FCDF"/>
<stop offset="1" stop-color="#929685"/>
</linearGradient>
<linearGradient id="paint12_linear_179_1218" x1="177.865" y1="91.5278" x2="177.865" y2="93.8599" gradientUnits="userSpaceOnUse">
<stop stop-color="#F6FCDF"/>
<stop offset="1" stop-color="#929685"/>
</linearGradient>
<linearGradient id="paint13_linear_179_1218" x1="189.954" y1="91.5278" x2="189.954" y2="93.8599" gradientUnits="userSpaceOnUse">
<stop stop-color="#F6FCDF"/>
<stop offset="1" stop-color="#929685"/>
</linearGradient>
<linearGradient id="paint14_linear_179_1218" x1="183.024" y1="90.428" x2="182.024" y2="90.428" gradientUnits="userSpaceOnUse">
<stop stop-color="#F6FCDF"/>
<stop offset="1" stop-color="#929685"/>
</linearGradient>
<linearGradient id="paint15_linear_179_1218" x1="147.406" y1="79.4392" x2="147.406" y2="115.705" gradientUnits="userSpaceOnUse">
<stop stop-color="#F6FCDF"/>
<stop offset="1" stop-color="#929685"/>
</linearGradient>
<linearGradient id="paint16_linear_179_1218" x1="145.934" y1="78.3174" x2="144.934" y2="78.3174" gradientUnits="userSpaceOnUse">
<stop stop-color="#F6FCDF"/>
<stop offset="1" stop-color="#929685"/>
</linearGradient>
<linearGradient id="paint17_linear_179_1218" x1="159.726" y1="112.59" x2="159.726" y2="123.084" gradientUnits="userSpaceOnUse">
<stop stop-color="#F6FCDF"/>
<stop offset="1" stop-color="#929685"/>
</linearGradient>
<linearGradient id="paint18_linear_179_1218" x1="159.726" y1="103.261" x2="159.726" y2="112.59" gradientUnits="userSpaceOnUse">
<stop stop-color="#F6FCDF"/>
<stop offset="1" stop-color="#929685"/>
</linearGradient>
<linearGradient id="paint19_linear_179_1218" x1="135.686" y1="131.589" x2="137.712" y2="157.427" gradientUnits="userSpaceOnUse">
<stop stop-color="#F6FCDF"/>
<stop offset="1" stop-color="white" stop-opacity="0"/>
</linearGradient>
<linearGradient id="paint20_linear_179_1218" x1="91.6492" y1="132.487" x2="91.6841" y2="154.953" gradientUnits="userSpaceOnUse">
<stop stop-color="#F6FCDF"/>
<stop offset="1" stop-color="white" stop-opacity="0"/>
</linearGradient>
</defs>
</svg>
